# xmcd
#
# Track frame offsets:
#	150
#	13007
#	30965
#	42418
#	54115
#	60402
#	80338
#	92792
#	105410
#	118984
#	130869
#	143983
#	156387
#	175273
#
# Disc length: 2744 seconds
#
# Revision: 0
# Processed by: cddbd v1.4PL0 Copyright (c) Steve Scherf et al.
# Submitted via: dBpowerAMP V4.0
#
DISCID=b00ab60e
DTITLE=Catfish Gracie - Kalamazoograss
DYEAR=2003
DGENRE=Bluegrass
TTITLE0=Billy Mize (The Moonshinin' Preacher's Tale)
TTITLE1=The Legend of Joaquin Murieta
TTITLE2='Cause I Loved You
TTITLE3=JJ Shen
TTITLE4=Way Up On Clinch Mountain
TTITLE5=Sin and Pleasure
TTITLE6=Derby Days
TTITLE7=Dry and Lonesome With The Demijohn Blues
TTITLE8=Cold Cold Cold
TTITLE9=Tennessee Blue
TTITLE10=Red Light Rosie
TTITLE11=Stop Your Sinnin' (That's Not Jesus)
TTITLE12=The Bell Witch
TTITLE13=Kalamazoograss
EXTD=
EXTT0=
EXTT1=
EXTT2=
EXTT3=
EXTT4=
EXTT5=
EXTT6=
EXTT7=
EXTT8=
EXTT9=
EXTT10=
EXTT11=
EXTT12=
EXTT13=
PLAYORDER=
